<?xml version="1.0" encoding="utf-8"?>
<!-- Generator: Adobe Illustrator 18.1.1, SVG Export Plug-In . SVG Version: 6.00 Build 0)  -->
<!DOCTYPE svg PUBLIC "-//W3C//DTD SVG 1.1//EN" "http://www.w3.org/Graphics/SVG/1.1/DTD/svg11.dtd">
<svg version="1.1" id="labels" xmlns="http://www.w3.org/2000/svg" xmlns:xlink="http://www.w3.org/1999/xlink" x="0px" y="0px"
	 width="110px" height="198px" viewBox="-164 -39 110 198" enable-background="new -164 -39 110 198" xml:space="preserve">
<g id="unique_obc">
	<g>
		<polygon fill="#191919" points="-56,157 -90,157 -98,143 -64,143 		"/>
		<g>
			<g>
				<path fill="#FFFFFF" d="M-86.4,150c0-2.5,1.4-4,3.5-4c2,0,3.5,1.5,3.5,4s-1.4,4.1-3.5,4.1S-86.4,152.6-86.4,150z M-80.9,150
					c0-1.8-0.8-2.8-2-2.8s-2,1.1-2,2.8c0,1.8,0.8,2.9,2,2.9C-81.7,152.9-80.9,151.8-80.9,150z"/>
				<path fill="#FFFFFF" d="M-78.1,146.2h2.5c1.6,0,2.8,0.5,2.8,1.9c0,0.7-0.4,1.5-1.3,1.7l0,0c1.1,0.2,1.8,0.8,1.8,1.9
					c0,1.6-1.3,2.3-3,2.3H-78v-7.8H-78.1z M-75.7,149.4c1.1,0,1.6-0.4,1.6-1.2c0-0.7-0.5-1-1.5-1h-1v2.2H-75.7z M-75.5,152.9
					c1.2,0,1.8-0.4,1.8-1.3c0-0.8-0.6-1.2-1.8-1.2h-1.2v2.5H-75.5z"/>
				<path fill="#FFFFFF" d="M-67.9,146c1,0,1.7,0.5,2.2,1l-0.8,0.9c-0.4-0.4-0.8-0.6-1.5-0.6c-1.3,0-2.2,1.1-2.2,2.8
					c0,1.8,0.9,2.9,2.2,2.9c0.7,0,1.2-0.3,1.7-0.8l0.8,0.9c-0.6,0.7-1.5,1.1-2.4,1.1c-2,0-3.6-1.4-3.6-4
					C-71.5,147.5-69.9,146-67.9,146z"/>
			</g>
		</g>
	</g>
	<g>
		<polygon fill="#FFE000" points="-92,157 -110,157 -118,143 -100,143 		"/>
		<polygon fill="#02B757" points="-110,157 -162,157 -162,143 -118,143 		"/>
		<g>
			<g>
				<path fill="#FFFFFF" d="M-158,146.2h1.4v6.7h3.2v1.2h-4.6V146.2z"/>
				<path fill="#FFFFFF" d="M-152.2,146.2h1.4v7.8h-1.4V146.2z"/>
				<path fill="#FFFFFF" d="M-149,146.2h1.5l1.5,3.8l0.5,1.5l0,0l0.5-1.5l1.4-3.9h1.6v7.8h-1.3v-3.6c0-0.7,0.1-1.8,0.2-2.5l0,0
					l-0.6,1.8l-1.4,3.6h-0.6l-1.4-3.6l-0.6-1.8l0,0c0.1,0.7,0.2,1.8,0.2,2.5v3.6h-1.5V146.2z"/>
				<path fill="#FFFFFF" d="M-140.2,146.2h1.4v7.8h-1.4V146.2z"/>
				<path fill="#FFFFFF" d="M-135.4,147.3h-2.3v-1.2h5.9v1.2h-2.2v6.7h-1.4V147.3z"/>
				<path fill="#FFFFFF" d="M-130.6,146.2h4.7v1.2h-3.3v2h2.8v1.2h-2.8v2.3h3.4v1.2h-4.8C-130.6,154.1-130.6,146.2-130.6,146.2z"/>
				<path fill="#FFFFFF" d="M-124.4,146.2h2.1c2.4,0,3.8,1.3,3.8,3.9c0,2.6-1.4,4-3.8,4h-2.2L-124.4,146.2L-124.4,146.2z
					 M-122.4,152.9c1.6,0,2.5-0.9,2.5-2.8c0-1.9-0.9-2.8-2.5-2.8h-0.6v5.6H-122.4z"/>
			</g>
		</g>
		<g>
			<g>
				<path fill="#191919" d="M-108.1,146.2h1.4v4.5c0,1.7,0.6,2.3,1.6,2.3s1.6-0.6,1.6-2.3v-4.5h1.3v4.4c0,2.6-1.2,3.6-3,3.6
					c-1.8,0-3-1-3-3.6L-108.1,146.2L-108.1,146.2z"/>
			</g>
		</g>
	</g>
</g>
<g id="unique_tbc">
	<g>
		<polygon fill="#F68802" points="-56,139 -90,139 -98,125 -64,125 		"/>
		<g>
			<g>
				<path fill="#FFFFFF" d="M-84.4,129.3h-2.3v-1.2h5.9v1.2H-83v6.7h-1.4V129.3z"/>
				<path fill="#FFFFFF" d="M-79.6,128.2h2.5c1.6,0,2.8,0.5,2.8,1.9c0,0.7-0.4,1.5-1.3,1.7l0,0c1.1,0.2,1.8,0.8,1.8,1.9
					c0,1.6-1.3,2.3-3,2.3h-2.7v-7.8H-79.6z M-77.3,131.4c1.1,0,1.6-0.4,1.6-1.2c0-0.7-0.5-1-1.5-1h-1v2.2H-77.3z M-77.1,134.9
					c1.2,0,1.8-0.4,1.8-1.3c0-0.8-0.6-1.2-1.8-1.2h-1.2v2.5H-77.1z"/>
				<path fill="#FFFFFF" d="M-69.5,128c1,0,1.7,0.5,2.2,1l-0.8,0.9c-0.4-0.4-0.9-0.6-1.5-0.6c-1.3,0-2.2,1.1-2.2,2.8
					c0,1.8,0.9,2.9,2.2,2.9c0.7,0,1.2-0.3,1.7-0.8l0.8,0.9c-0.6,0.7-1.5,1.1-2.4,1.1c-2,0-3.6-1.4-3.6-4
					C-73.1,129.5-71.5,128-69.5,128z"/>
			</g>
		</g>
	</g>
	<g>
		<polygon fill="#FFE000" points="-92,139 -110,139 -118,125 -100,125 		"/>
		<polygon fill="#02B757" points="-110,139 -162,139 -162,125 -118,125 		"/>
		<g>
			<g>
				<path fill="#FFFFFF" d="M-158,128.2h1.4v6.7h3.2v1.2h-4.6V128.2z"/>
				<path fill="#FFFFFF" d="M-152.2,128.2h1.4v7.8h-1.4V128.2z"/>
				<path fill="#FFFFFF" d="M-149,128.2h1.5l1.5,3.8l0.5,1.5l0,0l0.5-1.5l1.4-3.9h1.6v7.8h-1.3v-3.6c0-0.7,0.1-1.8,0.2-2.5l0,0
					l-0.6,1.8l-1.4,3.6h-0.6l-1.4-3.6l-0.6-1.8l0,0c0.1,0.7,0.2,1.8,0.2,2.5v3.6h-1.5V128.2z"/>
				<path fill="#FFFFFF" d="M-140.2,128.2h1.4v7.8h-1.4V128.2z"/>
				<path fill="#FFFFFF" d="M-135.4,129.3h-2.3v-1.2h5.9v1.2h-2.2v6.7h-1.4V129.3z"/>
				<path fill="#FFFFFF" d="M-130.6,128.2h4.7v1.2h-3.3v2h2.8v1.2h-2.8v2.3h3.4v1.2h-4.8C-130.6,136.1-130.6,128.2-130.6,128.2z"/>
				<path fill="#FFFFFF" d="M-124.4,128.2h2.1c2.4,0,3.8,1.3,3.8,3.9c0,2.6-1.4,4-3.8,4h-2.2L-124.4,128.2L-124.4,128.2z
					 M-122.4,134.9c1.6,0,2.5-0.9,2.5-2.8c0-1.9-0.9-2.8-2.5-2.8h-0.6v5.6H-122.4z"/>
			</g>
		</g>
		<g>
			<g>
				<path fill="#191919" d="M-108.1,128.2h1.4v4.5c0,1.7,0.6,2.3,1.6,2.3s1.6-0.6,1.6-2.3v-4.5h1.3v4.4c0,2.6-1.2,3.6-3,3.6
					c-1.8,0-3-1-3-3.6L-108.1,128.2L-108.1,128.2z"/>
			</g>
		</g>
	</g>
</g>
<g id="unique_bc">
	<g>
		<polygon fill="#00A2FF" points="-64,121 -90,121 -98,107 -72,107 		"/>
		<g>
			<g>
				<path fill="#FFFFFF" d="M-86,110.2h2.5c1.6,0,2.8,0.5,2.8,1.9c0,0.7-0.4,1.5-1.3,1.7l0,0c1.1,0.2,1.8,0.8,1.8,1.9
					c0,1.6-1.3,2.3-3,2.3H-86V110.2z M-83.6,113.4c1.1,0,1.6-0.4,1.6-1.2c0-0.7-0.5-1-1.5-1h-1v2.2H-83.6z M-83.5,116.9
					c1.2,0,1.8-0.4,1.8-1.3c0-0.8-0.6-1.2-1.8-1.2h-1.2v2.5H-83.5z"/>
				<path fill="#FFFFFF" d="M-75.8,110c1,0,1.7,0.5,2.2,1l-0.8,0.9c-0.4-0.4-0.9-0.6-1.5-0.6c-1.3,0-2.2,1.1-2.2,2.8
					c0,1.8,0.9,2.9,2.2,2.9c0.7,0,1.2-0.3,1.7-0.8l0.8,0.9c-0.6,0.7-1.5,1.1-2.4,1.1c-2,0-3.6-1.4-3.6-4
					C-79.5,111.5-77.8,110-75.8,110z"/>
			</g>
		</g>
	</g>
	<g>
		<polygon fill="#FFE000" points="-92,121 -110,121 -118,107 -100,107 		"/>
		<polygon fill="#02B757" points="-110,121 -162,121 -162,107 -118,107 		"/>
		<g>
			<g>
				<path fill="#FFFFFF" d="M-158,110.2h1.4v6.7h3.2v1.2h-4.6V110.2z"/>
				<path fill="#FFFFFF" d="M-152.2,110.2h1.4v7.8h-1.4V110.2z"/>
				<path fill="#FFFFFF" d="M-149,110.2h1.5l1.5,3.8l0.5,1.5l0,0l0.5-1.5l1.4-3.9h1.6v7.8h-1.3v-3.6c0-0.7,0.1-1.8,0.2-2.5l0,0
					l-0.6,1.8l-1.4,3.6h-0.6l-1.4-3.6l-0.6-1.8l0,0c0.1,0.7,0.2,1.8,0.2,2.5v3.6h-1.5V110.2z"/>
				<path fill="#FFFFFF" d="M-140.2,110.2h1.4v7.8h-1.4V110.2z"/>
				<path fill="#FFFFFF" d="M-135.4,111.3h-2.3v-1.2h5.9v1.2h-2.2v6.7h-1.4V111.3z"/>
				<path fill="#FFFFFF" d="M-130.6,110.2h4.7v1.2h-3.3v2h2.8v1.2h-2.8v2.3h3.4v1.2h-4.8C-130.6,118.1-130.6,110.2-130.6,110.2z"/>
				<path fill="#FFFFFF" d="M-124.4,110.2h2.1c2.4,0,3.8,1.3,3.8,3.9c0,2.6-1.4,4-3.8,4h-2.2L-124.4,110.2L-124.4,110.2z
					 M-122.4,116.9c1.6,0,2.5-0.9,2.5-2.8c0-1.9-0.9-2.8-2.5-2.8h-0.6v5.6H-122.4z"/>
			</g>
		</g>
		<g>
			<g>
				<path fill="#191919" d="M-108.1,110.2h1.4v4.5c0,1.7,0.6,2.3,1.6,2.3s1.6-0.6,1.6-2.3v-4.5h1.3v4.4c0,2.6-1.2,3.6-3,3.6
					c-1.8,0-3-1-3-3.6L-108.1,110.2L-108.1,110.2z"/>
			</g>
		</g>
	</g>
</g>
<g id="unique">
	<polygon fill="#FFE000" points="-92,103 -110,103 -118,89 -100,89 	"/>
	<polygon fill="#02B757" points="-110,103 -162,103 -162,89 -118,89 	"/>
	<g>
		<g>
			<path fill="#FFFFFF" d="M-158,92.2h1.4v6.7h3.2v1.2h-4.6V92.2z"/>
			<path fill="#FFFFFF" d="M-152.2,92.2h1.4v7.8h-1.4V92.2z"/>
			<path fill="#FFFFFF" d="M-149,92.2h1.5l1.5,3.8l0.5,1.5l0,0l0.5-1.5l1.4-3.9h1.6v7.8h-1.3v-3.6c0-0.7,0.1-1.8,0.2-2.5l0,0
				l-0.6,1.8l-1.4,3.6h-0.6l-1.4-3.6l-0.6-1.8l0,0c0.1,0.7,0.2,1.8,0.2,2.5v3.6h-1.5V92.2z"/>
			<path fill="#FFFFFF" d="M-140.2,92.2h1.4v7.8h-1.4V92.2z"/>
			<path fill="#FFFFFF" d="M-135.4,93.3h-2.3v-1.2h5.9v1.2h-2.2v6.7h-1.4V93.3z"/>
			<path fill="#FFFFFF" d="M-130.6,92.2h4.7v1.2h-3.3v2h2.8v1.2h-2.8v2.3h3.4v1.2h-4.8C-130.6,100.1-130.6,92.2-130.6,92.2z"/>
			<path fill="#FFFFFF" d="M-124.4,92.2h2.1c2.4,0,3.8,1.3,3.8,3.9c0,2.6-1.4,4-3.8,4h-2.2L-124.4,92.2L-124.4,92.2z M-122.4,98.9
				c1.6,0,2.5-0.9,2.5-2.8c0-1.9-0.9-2.8-2.5-2.8h-0.6v5.6H-122.4z"/>
		</g>
	</g>
	<g>
		<g>
			<path fill="#191919" d="M-108.1,92.2h1.4v4.5c0,1.7,0.6,2.3,1.6,2.3s1.6-0.6,1.6-2.3v-4.5h1.3v4.4c0,2.6-1.2,3.6-3,3.6
				c-1.8,0-3-1-3-3.6L-108.1,92.2L-108.1,92.2z"/>
		</g>
	</g>
</g>
<g id="limited_obc">
	<g>
		<polygon fill="#02B757" points="-110,85 -162,85 -162,71 -118,71 		"/>
		<g>
			<g>
				<path fill="#FFFFFF" d="M-158,74.2h1.4v6.7h3.2v1.2h-4.6V74.2z"/>
				<path fill="#FFFFFF" d="M-152.2,74.2h1.4V82h-1.4V74.2z"/>
				<path fill="#FFFFFF" d="M-149,74.2h1.5l1.5,3.8l0.5,1.5l0,0l0.5-1.5l1.4-3.9h1.6v7.8h-1.3v-3.6c0-0.7,0.1-1.8,0.2-2.5l0,0
					l-0.6,1.8l-1.4,3.6h-0.6l-1.4-3.6l-0.6-1.8l0,0c0.1,0.7,0.2,1.8,0.2,2.5v3.6h-1.5V74.2z"/>
				<path fill="#FFFFFF" d="M-140.2,74.2h1.4V82h-1.4V74.2z"/>
				<path fill="#FFFFFF" d="M-135.4,75.3h-2.3v-1.2h5.9v1.2h-2.2V82h-1.4V75.3z"/>
				<path fill="#FFFFFF" d="M-130.6,74.2h4.7v1.2h-3.3v2h2.8v1.2h-2.8v2.3h3.4v1.2h-4.8C-130.6,82.1-130.6,74.2-130.6,74.2z"/>
				<path fill="#FFFFFF" d="M-124.4,74.2h2.1c2.4,0,3.8,1.3,3.8,3.9s-1.4,4-3.8,4h-2.2L-124.4,74.2L-124.4,74.2z M-122.4,80.9
					c1.6,0,2.5-0.9,2.5-2.8s-0.9-2.8-2.5-2.8h-0.6v5.6C-123,80.9-122.4,80.9-122.4,80.9z"/>
			</g>
		</g>
	</g>
	<g>
		<polygon fill="#191919" points="-74,85 -108,85 -116,71 -82,71 		"/>
		<g>
			<g>
				<path fill="#FFFFFF" d="M-104.4,78c0-2.5,1.4-4,3.5-4c2,0,3.5,1.5,3.5,4s-1.4,4.1-3.5,4.1S-104.4,80.6-104.4,78z M-98.9,78
					c0-1.8-0.8-2.8-2-2.8c-1.2,0-2,1.1-2,2.8c0,1.8,0.8,2.9,2,2.9S-98.9,79.8-98.9,78z"/>
				<path fill="#FFFFFF" d="M-96.1,74.2h2.5c1.6,0,2.8,0.5,2.8,1.9c0,0.7-0.4,1.5-1.3,1.7l0,0c1.1,0.2,1.8,0.8,1.8,1.9
					c0,1.6-1.3,2.3-3,2.3H-96v-7.8H-96.1z M-93.7,77.4c1.1,0,1.6-0.4,1.6-1.2c0-0.7-0.5-1-1.5-1h-1v2.2H-93.7z M-93.5,80.9
					c1.2,0,1.8-0.4,1.8-1.3c0-0.8-0.6-1.2-1.8-1.2h-1.2v2.5H-93.5z"/>
				<path fill="#FFFFFF" d="M-85.9,74c1,0,1.7,0.5,2.2,1l-0.8,0.9c-0.4-0.4-0.8-0.6-1.5-0.6c-1.3,0-2.2,1.1-2.2,2.8
					c0,1.8,0.9,2.9,2.2,2.9c0.7,0,1.2-0.3,1.7-0.8l0.8,0.9c-0.6,0.7-1.5,1.1-2.4,1.1c-2,0-3.6-1.4-3.6-4C-89.5,75.5-87.9,74-85.9,74
					z"/>
			</g>
		</g>
	</g>
</g>
<g id="limited_tbc">
	<g>
		<polygon fill="#02B757" points="-110,67 -162,67 -162,53 -118,53 		"/>
		<g>
			<g>
				<path fill="#FFFFFF" d="M-158,56.2h1.4v6.7h3.2v1.2h-4.6V56.2z"/>
				<path fill="#FFFFFF" d="M-152.2,56.2h1.4V64h-1.4V56.2z"/>
				<path fill="#FFFFFF" d="M-149,56.2h1.5l1.5,3.8l0.5,1.5l0,0l0.5-1.5l1.4-3.9h1.6v7.8h-1.3v-3.6c0-0.7,0.1-1.8,0.2-2.5l0,0
					l-0.6,1.8l-1.4,3.6h-0.6l-1.4-3.6l-0.6-1.8l0,0c0.1,0.7,0.2,1.8,0.2,2.5v3.6h-1.5V56.2z"/>
				<path fill="#FFFFFF" d="M-140.2,56.2h1.4V64h-1.4V56.2z"/>
				<path fill="#FFFFFF" d="M-135.4,57.3h-2.3v-1.2h5.9v1.2h-2.2V64h-1.4V57.3z"/>
				<path fill="#FFFFFF" d="M-130.6,56.2h4.7v1.2h-3.3v2h2.8v1.2h-2.8v2.3h3.4v1.2h-4.8C-130.6,64.1-130.6,56.2-130.6,56.2z"/>
				<path fill="#FFFFFF" d="M-124.4,56.2h2.1c2.4,0,3.8,1.3,3.8,3.9s-1.4,4-3.8,4h-2.2L-124.4,56.2L-124.4,56.2z M-122.4,62.9
					c1.6,0,2.5-0.9,2.5-2.8s-0.9-2.8-2.5-2.8h-0.6v5.6C-123,62.9-122.4,62.9-122.4,62.9z"/>
			</g>
		</g>
	</g>
	<g>
		<polygon fill="#F68802" points="-74,67 -108,67 -116,53 -82,53 		"/>
		<g>
			<g>
				<path fill="#FFFFFF" d="M-102.4,57.3h-2.3v-1.2h5.9v1.2h-2.2V64h-1.4V57.3z"/>
				<path fill="#FFFFFF" d="M-97.6,56.2h2.5c1.6,0,2.8,0.5,2.8,1.9c0,0.7-0.4,1.5-1.3,1.7l0,0c1.1,0.2,1.8,0.8,1.8,1.9
					c0,1.6-1.3,2.3-3,2.3h-2.7v-7.8H-97.6z M-95.3,59.4c1.1,0,1.6-0.4,1.6-1.2c0-0.7-0.5-1-1.5-1h-1v2.2H-95.3z M-95.1,62.9
					c1.2,0,1.8-0.4,1.8-1.3c0-0.8-0.6-1.2-1.8-1.2h-1.2v2.5H-95.1z"/>
				<path fill="#FFFFFF" d="M-87.5,56c1,0,1.7,0.5,2.2,1l-0.7,0.9c-0.4-0.4-0.9-0.6-1.5-0.6c-1.3,0-2.2,1.1-2.2,2.8
					c0,1.8,0.9,2.9,2.2,2.9c0.7,0,1.2-0.3,1.7-0.8l0.8,0.9c-0.6,0.7-1.5,1.1-2.4,1.1c-2,0-3.6-1.4-3.6-4C-91.1,57.5-89.5,56-87.5,56
					z"/>
			</g>
		</g>
	</g>
</g>
<g id="limited_bc">
	<g>
		<polygon fill="#02B757" points="-110,49 -162,49 -162,35 -118,35 		"/>
		<g>
			<g>
				<path fill="#FFFFFF" d="M-158,38.2h1.4v6.7h3.2V46h-4.6V38.2z"/>
				<path fill="#FFFFFF" d="M-152.2,38.2h1.4V46h-1.4V38.2z"/>
				<path fill="#FFFFFF" d="M-149,38.2h1.5l1.5,3.8l0.5,1.5l0,0l0.5-1.5l1.4-3.9h1.6V46h-1.3v-3.6c0-0.7,0.1-1.8,0.2-2.5l0,0
					l-0.6,1.8l-1.4,3.6h-0.6l-1.4-3.6l-0.6-1.8l0,0c0.1,0.7,0.2,1.8,0.2,2.5V46h-1.5V38.2z"/>
				<path fill="#FFFFFF" d="M-140.2,38.2h1.4V46h-1.4V38.2z"/>
				<path fill="#FFFFFF" d="M-135.4,39.3h-2.3v-1.2h5.9v1.2h-2.2V46h-1.4V39.3z"/>
				<path fill="#FFFFFF" d="M-130.6,38.2h4.7v1.2h-3.3v2h2.8v1.2h-2.8v2.3h3.4V46h-4.8C-130.6,46-130.6,38.2-130.6,38.2z"/>
				<path fill="#FFFFFF" d="M-124.4,38.2h2.1c2.4,0,3.8,1.3,3.8,3.9s-1.4,4-3.8,4h-2.2L-124.4,38.2L-124.4,38.2z M-122.4,44.9
					c1.6,0,2.5-0.9,2.5-2.8s-0.9-2.8-2.5-2.8h-0.6v5.6C-123,44.9-122.4,44.9-122.4,44.9z"/>
			</g>
		</g>
	</g>
	<g>
		<polygon fill="#00A2FF" points="-82,49 -108,49 -116,35 -90,35 		"/>
		<g>
			<g>
				<path fill="#FFFFFF" d="M-104,38.2h2.5c1.6,0,2.8,0.5,2.8,1.9c0,0.7-0.4,1.5-1.3,1.7l0,0c1.1,0.2,1.8,0.8,1.8,1.9
					c0,1.6-1.3,2.3-3,2.3h-2.8V38.2z M-101.6,41.4c1.1,0,1.6-0.4,1.6-1.2c0-0.7-0.5-1-1.5-1h-1v2.2H-101.6z M-101.5,44.9
					c1.2,0,1.8-0.4,1.8-1.3c0-0.8-0.6-1.2-1.8-1.2h-1.2v2.5H-101.5z"/>
				<path fill="#FFFFFF" d="M-93.8,38c1,0,1.7,0.5,2.2,1l-0.8,0.9c-0.4-0.4-0.9-0.6-1.5-0.6c-1.3,0-2.2,1.1-2.2,2.8
					c0,1.8,0.9,2.9,2.2,2.9c0.7,0,1.2-0.3,1.7-0.8l0.8,0.9c-0.6,0.7-1.5,1.1-2.4,1.1c-2,0-3.6-1.4-3.6-4C-97.5,39.5-95.8,38-93.8,38
					z"/>
			</g>
		</g>
	</g>
</g>
<g id="limited">
	<polygon fill="#02B757" points="-110,31 -162,31 -162,17 -118,17 	"/>
	<g>
		<g>
			<path fill="#FFFFFF" d="M-158,20.2h1.4v6.7h3.2V28h-4.6V20.2z"/>
			<path fill="#FFFFFF" d="M-152.2,20.2h1.4V28h-1.4V20.2z"/>
			<path fill="#FFFFFF" d="M-149,20.2h1.5l1.5,3.8l0.5,1.5l0,0l0.5-1.5l1.4-3.9h1.6V28h-1.3v-3.6c0-0.7,0.1-1.8,0.2-2.5l0,0
				l-0.6,1.8l-1.4,3.6h-0.6l-1.4-3.6l-0.6-1.8l0,0c0.1,0.7,0.2,1.8,0.2,2.5V28h-1.5V20.2z"/>
			<path fill="#FFFFFF" d="M-140.2,20.2h1.4V28h-1.4V20.2z"/>
			<path fill="#FFFFFF" d="M-135.4,21.3h-2.3v-1.2h5.9v1.2h-2.2V28h-1.4V21.3z"/>
			<path fill="#FFFFFF" d="M-130.6,20.2h4.7v1.2h-3.3v2h2.8v1.2h-2.8v2.3h3.4V28h-4.8C-130.6,28-130.6,20.2-130.6,20.2z"/>
			<path fill="#FFFFFF" d="M-124.4,20.2h2.1c2.4,0,3.8,1.3,3.8,3.9s-1.4,4-3.8,4h-2.2L-124.4,20.2L-124.4,20.2z M-122.4,26.9
				c1.6,0,2.5-0.9,2.5-2.8c0-1.9-0.9-2.8-2.5-2.8h-0.6v5.6H-122.4z"/>
		</g>
	</g>
</g>
<g id="obc">
	<polygon fill="#191919" points="-128,13 -162,13 -162,-1 -136,-1 	"/>
	<g>
		<g>
			<path fill="#FFFFFF" d="M-158.4,6c0-2.5,1.4-4,3.5-4c2,0,3.5,1.5,3.5,4s-1.4,4.1-3.5,4.1C-157,10.1-158.4,8.6-158.4,6z M-152.9,6
				c0-1.8-0.8-2.8-2-2.8c-1.2,0-2,1.1-2,2.8c0,1.8,0.8,2.9,2,2.9C-153.7,8.9-152.9,7.8-152.9,6z"/>
			<path fill="#FFFFFF" d="M-150.1,2.2h2.5c1.6,0,2.8,0.5,2.8,1.9c0,0.7-0.4,1.5-1.3,1.7l0,0c1.1,0.2,1.8,0.8,1.8,1.9
				c0,1.6-1.3,2.3-3,2.3h-2.7V2.2H-150.1z M-147.7,5.4c1.1,0,1.6-0.4,1.6-1.2c0-0.7-0.5-1-1.5-1h-1v2.2H-147.7z M-147.5,8.9
				c1.2,0,1.8-0.4,1.8-1.3c0-0.8-0.6-1.2-1.8-1.2h-1.2v2.5H-147.5z"/>
			<path fill="#FFFFFF" d="M-139.9,2c1,0,1.7,0.5,2.2,1l-0.8,0.9c-0.4-0.4-0.9-0.6-1.5-0.6c-1.3,0-2.2,1.1-2.2,2.8
				c0,1.8,0.9,2.9,2.2,2.9c0.7,0,1.2-0.3,1.7-0.8l0.8,0.9c-0.6,0.7-1.5,1.1-2.4,1.1c-2,0-3.6-1.4-3.6-4C-143.5,3.5-141.9,2-139.9,2z
				"/>
		</g>
	</g>
</g>
<g id="tbc">
	<polygon fill="#F68802" points="-128,-5 -162,-5 -162,-19 -136,-19 	"/>
	<g>
		<g>
			<path fill="#FFFFFF" d="M-156.4-14.7h-2.3v-1.2h5.9v1.2h-2.2V-8h-1.4V-14.7z"/>
			<path fill="#FFFFFF" d="M-151.6-15.8h2.5c1.6,0,2.8,0.5,2.8,1.9c0,0.7-0.4,1.5-1.3,1.7l0,0c1.1,0.2,1.8,0.8,1.8,1.9
				c0,1.6-1.3,2.3-3,2.3h-2.7v-7.8H-151.6z M-149.3-12.6c1.1,0,1.6-0.4,1.6-1.2c0-0.7-0.5-1-1.5-1h-1v2.2H-149.3z M-149.1-9.1
				c1.2,0,1.8-0.4,1.8-1.3c0-0.8-0.6-1.2-1.8-1.2h-1.2v2.5H-149.1z"/>
			<path fill="#FFFFFF" d="M-141.5-16c1,0,1.7,0.5,2.2,1l-0.7,0.9c-0.4-0.4-0.9-0.6-1.5-0.6c-1.3,0-2.2,1.1-2.2,2.8
				c0,1.8,0.9,2.9,2.2,2.9c0.7,0,1.2-0.3,1.7-0.8l0.8,0.9c-0.6,0.7-1.5,1.1-2.4,1.1c-2,0-3.6-1.4-3.6-4
				C-145.1-14.5-143.5-16-141.5-16z"/>
		</g>
	</g>
</g>
<g id="bc">
	<polygon fill="#00A2FF" points="-136,-23 -162,-23 -162,-37 -144,-37 	"/>
	<g>
		<g>
			<path fill="#FFFFFF" d="M-158-33.8h2.5c1.6,0,2.8,0.5,2.8,1.9c0,0.7-0.4,1.5-1.3,1.7l0,0c1.1,0.2,1.8,0.8,1.8,1.9
				c0,1.6-1.3,2.3-3,2.3h-2.8V-33.8z M-155.6-30.6c1.1,0,1.6-0.4,1.6-1.2c0-0.7-0.5-1-1.5-1h-1v2.2H-155.6z M-155.4-27.1
				c1.2,0,1.8-0.4,1.8-1.3c0-0.8-0.6-1.2-1.8-1.2h-1.2v2.5H-155.4z"/>
			<path fill="#FFFFFF" d="M-147.8-34c1,0,1.7,0.5,2.2,1l-0.8,0.9c-0.4-0.4-0.9-0.6-1.5-0.6c-1.3,0-2.2,1.1-2.2,2.8
				c0,1.8,0.9,2.9,2.2,2.9c0.7,0,1.2-0.3,1.7-0.8l0.8,0.9c-0.6,0.7-1.5,1.1-2.4,1.1c-2,0-3.6-1.4-3.6-4
				C-151.5-32.5-149.8-34-147.8-34z"/>
		</g>
	</g>
</g>
</svg>
